<svg xmlns="http://www.w3.org/2000/svg" width="153.044" height="134.997" viewBox="0 0 153.044 134.997">
  <g id="Vector_Smart_Object" data-name="Vector Smart Object" transform="translate(-437.13 -1120.205)">
    <g id="그룹_11" data-name="그룹 11">
      <path id="패스_1" data-name="패스 1" d="M542.313,1197.074l-32.64-10.518-32.756,10.4,3.479,1.194,29.277-8.707,28.775,8.939Z" fill="none" stroke="#868787" stroke-miterlimit="10" stroke-width="1.289"/>
      <path id="패스_2" data-name="패스 2" d="M451.3,1178.376c7.916-.336,13.626,1.1,17.168,4.887-4.755-7.139-10.609-10.447-17.506-9.478a2.217,2.217,0,0,0-1.709,2.432A2.193,2.193,0,0,0,451.3,1178.376Z" fill="none" stroke="#868787" stroke-miterlimit="10" stroke-width="1.289" fill-rule="evenodd"/>
      <path id="패스_3" data-name="패스 3" d="M553.636,1183.471q9.155-5.363,16.338-3.136a2.662,2.662,0,0,1,.835,4.671,2.45,2.45,0,0,1-2.776.278C564.489,1182.893,559.529,1182.242,553.636,1183.471Z" fill="none" stroke="#868787" stroke-miterlimit="10" stroke-width="1.289" fill-rule="evenodd"/>
      <path id="패스_4" data-name="패스 4" d="M495.458,1147.278q-2.773-14.6-11.22-20.194a3.307,3.307,0,0,0-3.642-.062,3.721,3.721,0,0,0-1.638,3.44,3.5,3.5,0,0,0,2.152,3.2C486.537,1135.238,491.507,1139.906,495.458,1147.278Z" fill="none" stroke="#868787" stroke-miterlimit="10" stroke-width="1.289" fill-rule="evenodd"/>
      <path id="패스_5" data-name="패스 5" d="M553.249,1141.179a35.851,35.851,0,0,0-14.444,8.6,28.675,28.675,0,0,1,11.231-14.739,3.53,3.53,0,0,1,3.733-.138,3.481,3.481,0,0,1,1.73,3.3A3.418,3.418,0,0,1,553.249,1141.179Z" fill="none" stroke="#868787" stroke-miterlimit="10" stroke-width="1.289" fill-rule="evenodd"/>
      <g id="그룹_1" data-name="그룹 1">
        <path id="패스_6" data-name="패스 6" d="M472.175,1173.136a10.3,10.3,0,1,0,9.074-11.364A10.3,10.3,0,0,0,472.175,1173.136Z" fill="none" stroke="#868787" stroke-miterlimit="10" stroke-width="1.289"/>
        <path id="패스_7" data-name="패스 7" d="M483.138,1178.337a5.372,5.372,0,0,1-5.554-2.792.357.357,0,0,1,.649-.295,4.971,4.971,0,0,0,8.987-1.018.357.357,0,0,1,.7.142A5.363,5.363,0,0,1,483.138,1178.337Z" fill="none" stroke="#868787" stroke-miterlimit="10" stroke-width="1.289"/>
        <path id="패스_8" data-name="패스 8" d="M477.843,1170.943a1.266,1.266,0,1,0,1.055-1.669A1.415,1.415,0,0,0,477.843,1170.943Z" fill="none" stroke="#868787" stroke-miterlimit="10" stroke-width="1.289"/>
        <path id="패스_9" data-name="패스 9" d="M484.175,1170.227a1.267,1.267,0,1,0,1.056-1.672A1.417,1.417,0,0,0,484.175,1170.227Z" fill="none" stroke="#868787" stroke-miterlimit="10" stroke-width="1.289"/>
      </g>
      <g id="그룹_2" data-name="그룹 2">
        <path id="패스_10" data-name="패스 10" d="M537.833,1156.773a6.127,6.127,0,1,0,7.592-4.17A6.109,6.109,0,0,0,537.833,1156.773Z" fill="none" stroke="#868787" stroke-miterlimit="10" stroke-width="1.289"/>
        <path id="패스_11" data-name="패스 11" d="M543.161,1162.237a.212.212,0,0,1,.119-.407c.288.084.545,0,.585-.136.018-.063-.119-.215-.243-.3-.2-.13-.192-.273-.172-.345s.094-.2.332-.2c.148,0,.343-.059.364-.124a.234.234,0,0,0-.048-.2c-.059-.084-.231-.225-.671-.236a.211.211,0,1,1,.009-.422,1.19,1.19,0,0,1,1.006.407.656.656,0,0,1,.112.568.539.539,0,0,0-.281.969A.851.851,0,0,1,543.161,1162.237Z" fill="none" stroke="#868787" stroke-miterlimit="10" stroke-width="1.289"/>
        <path id="패스_12" data-name="패스 12" d="M541.351,1157.195a.21.21,0,0,1-.11-.328,1.119,1.119,0,0,1,1.8.517.216.216,0,0,1-.2.228.213.213,0,0,1-.229-.2c-.009-.121-.179-.29-.452-.369a.579.579,0,0,0-.578.071A.213.213,0,0,1,541.351,1157.195Z" fill="none" stroke="#868787" stroke-miterlimit="10" stroke-width="1.289"/>
        <path id="패스_13" data-name="패스 13" d="M544.993,1158.246a.2.2,0,0,1-.067-.035.208.208,0,0,1-.043-.295,1.115,1.115,0,0,1,1.792.517.212.212,0,0,1-.422.032c-.008-.121-.181-.291-.451-.369a.588.588,0,0,0-.581.072A.21.21,0,0,1,544.993,1158.246Z" fill="none" stroke="#868787" stroke-miterlimit="10" stroke-width="1.289"/>
      </g>
      <g id="그룹_3" data-name="그룹 3">
        <path id="패스_14" data-name="패스 14" d="M547.006,1188.631a5.089,5.089,0,1,0,6.821-2.3A5.071,5.071,0,0,0,547.006,1188.631Z" fill="none" stroke="#868787" stroke-miterlimit="10" stroke-width="1.289"/>
        <path id="패스_15" data-name="패스 15" d="M550.619,1189.982a.376.376,0,0,1-.044-.023l-1.033-.66a.175.175,0,1,1,.187-.295l.861.548-.244-.989a.177.177,0,1,1,.343-.085l.294,1.188a.273.273,0,0,1-.089.309A.256.256,0,0,1,550.619,1189.982Z" fill="none" stroke="#868787" stroke-miterlimit="10" stroke-width="1.289"/>
        <path id="패스_16" data-name="패스 16" d="M552.865,1191.088a.254.254,0,0,1-.163-.221.273.273,0,0,1,.192-.257l1.125-.492a.179.179,0,0,1,.232.093.175.175,0,0,1-.09.23l-.935.408.958.349a.175.175,0,0,1-.12.329l-1.154-.417C552.895,1191.1,552.878,1191.1,552.865,1191.088Z" fill="none" stroke="#868787" stroke-miterlimit="10" stroke-width="1.289"/>
        <path id="패스_17" data-name="패스 17" d="M548.785,1192.318a1.858,1.858,0,1,0,2.489-.84A1.849,1.849,0,0,0,548.785,1192.318Z" fill="none" stroke="#868787" stroke-miterlimit="10" stroke-width="1.289"/>
        <path id="패스_18" data-name="패스 18" d="M549.63,1194.8a1.867,1.867,0,0,0,1.121.167,1.34,1.34,0,0,0-1.934-.954A1.833,1.833,0,0,0,549.63,1194.8Z" fill="none" stroke="#868787" stroke-miterlimit="10" stroke-width="1.289"/>
      </g>
      <g id="그룹_4" data-name="그룹 4">
        <path id="패스_19" data-name="패스 19" d="M457.184,1193.727a5.728,5.728,0,1,0,4.4-6.784A5.728,5.728,0,0,0,457.184,1193.727Z" fill="none" stroke="#868787" stroke-miterlimit="10" stroke-width="1.289"/>
        <path id="패스_20" data-name="패스 20" d="M461.06,1192.922a.884.884,0,0,1-1.052-.676.2.2,0,0,1,.387-.085.489.489,0,1,0,.955-.2.2.2,0,0,1,.389-.084A.884.884,0,0,1,461.06,1192.922Z" fill="none" stroke="#868787" stroke-miterlimit="10" stroke-width="1.289"/>
        <path id="패스_21" data-name="패스 21" d="M464.521,1192.179a.885.885,0,0,1-1.051-.676.2.2,0,1,1,.386-.085.5.5,0,0,0,.582.376.486.486,0,0,0,.374-.579.2.2,0,0,1,.389-.085A.884.884,0,0,1,464.521,1192.179Z" fill="none" stroke="#868787" stroke-miterlimit="10" stroke-width="1.289"/>
        <path id="패스_22" data-name="패스 22" d="M463.384,1195.3a4.853,4.853,0,0,1-1.8.04.2.2,0,0,1-.161-.228.2.2,0,0,1,.229-.162,4.424,4.424,0,0,0,3.179-.682.2.2,0,0,1,.274.053.2.2,0,0,1-.053.277A4.851,4.851,0,0,1,463.384,1195.3Z" fill="none" stroke="#868787" stroke-miterlimit="10" stroke-width="1.289"/>
        <path id="패스_23" data-name="패스 23" d="M466.328,1188.9l-1.567.337a.291.291,0,0,1-.322-.466l1.028-1.591-1.356.292a.2.2,0,0,1-.238-.152.194.194,0,0,1,.152-.233l1.567-.339a.293.293,0,0,1,.324.467l-1.03,1.589,1.358-.295a.2.2,0,0,1,.235.152A.2.2,0,0,1,466.328,1188.9Z" fill="none" stroke="#868787" stroke-miterlimit="10" stroke-width="1.289"/>
        <path id="패스_24" data-name="패스 24" d="M468.372,1186.4l-1.112.237a.292.292,0,0,1-.324-.467l.673-1.037-.9.194a.2.2,0,0,1-.236-.151.2.2,0,0,1,.152-.235l1.113-.238a.311.311,0,0,1,.345.107.319.319,0,0,1-.023.362l-.67,1.033.9-.193a.2.2,0,0,1,.085.389Z" fill="none" stroke="#868787" stroke-miterlimit="10" stroke-width="1.289"/>
      </g>
      <g id="그룹_5" data-name="그룹 5">
        <path id="패스_25" data-name="패스 25" d="M526.03,1141.384a4.837,4.837,0,1,0,6.369-2.5A4.82,4.82,0,0,0,526.03,1141.384Z" fill="none" stroke="#868787" stroke-miterlimit="10" stroke-width="1.289"/>
        <path id="패스_26" data-name="패스 26" d="M528.852,1141.82a.66.66,0,0,0,.243.893.742.742,0,1,0-.243-.893Z" fill="none" stroke="#868787" stroke-miterlimit="10" stroke-width="1.289"/>
        <path id="패스_27" data-name="패스 27" d="M531.6,1143.01a.595.595,0,1,0,.824-.432A.665.665,0,0,0,531.6,1143.01Z" fill="none" stroke="#868787" stroke-miterlimit="10" stroke-width="1.289"/>
        <path id="패스_28" data-name="패스 28" d="M527.6,1139.165a1.16,1.16,0,0,0,2.129.924,5.578,5.578,0,0,0-.253-2.32S527.857,1138.579,527.6,1139.165Z" fill="none" stroke="#868787" stroke-miterlimit="10" stroke-width="1.289"/>
        <path id="패스_29" data-name="패스 29" d="M528.325,1140.411a.852.852,0,0,1-.444-1.125.827.827,0,0,1,.195-.278.166.166,0,0,1,.235.008.164.164,0,0,1-.005.235.548.548,0,0,0-.119.17.521.521,0,0,0,.27.683.167.167,0,1,1-.132.306Z" fill="none" stroke="#868787" stroke-miterlimit="10" stroke-width="1.289"/>
        <path id="패스_30" data-name="패스 30" d="M531.745,1146.207a1.051,1.051,0,0,1-1.409.44l-2.232-.968a.976.976,0,1,1,.773-1.768l2.231.969A1.048,1.048,0,0,1,531.745,1146.207Z" fill="none" stroke="#868787" stroke-miterlimit="10" stroke-width="1.289"/>
      </g>
      <g id="그룹_6" data-name="그룹 6">
        <path id="패스_31" data-name="패스 31" d="M498.345,1133.928a4.018,4.018,0,1,0,4.018-4.005A4.012,4.012,0,0,0,498.345,1133.928Z" fill="none" stroke="#868787" stroke-miterlimit="10" stroke-width="1.289"/>
        <path id="패스_32" data-name="패스 32" d="M501.171,1136.4a.139.139,0,0,1-.052-.269,3.375,3.375,0,0,1,2.487,0,.139.139,0,1,1-.1.259,3.1,3.1,0,0,0-2.283,0A.135.135,0,0,1,501.171,1136.4Z" fill="none" stroke="#868787" stroke-miterlimit="10" stroke-width="1.289"/>
        <path id="패스_33" data-name="패스 33" d="M501.5,1133.839a.13.13,0,0,1-.1-.04l-.753-.75a.139.139,0,1,1,.2-.2l.754.75a.138.138,0,0,1,0,.2A.137.137,0,0,1,501.5,1133.839Z" fill="none" stroke="#868787" stroke-miterlimit="10" stroke-width="1.289"/>
        <path id="패스_34" data-name="패스 34" d="M500.743,1133.839a.132.132,0,0,1-.1-.04.138.138,0,0,1,0-.2l.753-.75a.139.139,0,1,1,.2.2l-.754.75A.13.13,0,0,1,500.743,1133.839Z" fill="none" stroke="#868787" stroke-miterlimit="10" stroke-width="1.289"/>
        <path id="패스_35" data-name="패스 35" d="M503.981,1133.839a.134.134,0,0,1-.1-.04l-.751-.75a.136.136,0,0,1,0-.2.138.138,0,0,1,.2,0l.75.75a.136.136,0,0,1,0,.2A.132.132,0,0,1,503.981,1133.839Z" fill="none" stroke="#868787" stroke-miterlimit="10" stroke-width="1.289"/>
        <path id="패스_36" data-name="패스 36" d="M503.229,1133.839a.131.131,0,0,1-.1-.04.136.136,0,0,1,0-.2l.751-.75a.139.139,0,1,1,.2.2l-.75.75A.141.141,0,0,1,503.229,1133.839Z" fill="none" stroke="#868787" stroke-miterlimit="10" stroke-width="1.289"/>
      </g>
      <g id="그룹_7" data-name="그룹 7">
        <path id="패스_37" data-name="패스 37" d="M493.819,1161.272a15.8,15.8,0,1,0,15.754-15.789A15.771,15.771,0,0,0,493.819,1161.272Z" fill="none" stroke="#868787" stroke-miterlimit="10" stroke-width="1.289"/>
        <path id="패스_38" data-name="패스 38" d="M509.64,1171.164a9.217,9.217,0,0,1-3.7-.741.535.535,0,0,1-.284-.719.544.544,0,0,1,.714-.279,8.005,8.005,0,0,0,3.27.647,7.4,7.4,0,0,0,6.381-3.3.548.548,0,1,1,.94.565A8.526,8.526,0,0,1,509.64,1171.164Z" fill="none" stroke="#868787" stroke-miterlimit="10" stroke-width="1.289"/>
        <path id="패스_39" data-name="패스 39" d="M517.533,1165.826a.473.473,0,1,1-.473-.469A.469.469,0,0,1,517.533,1165.826Z" fill="none" stroke="#868787" stroke-miterlimit="10" stroke-width="1.289"/>
        <path id="패스_40" data-name="패스 40" d="M522.257,1155.977c-3.977-.81-8-.728-11.1.757a3.643,3.643,0,0,1-1.545.45,3.751,3.751,0,0,1-1.558-.44c-3.109-1.471-7.135-1.529-11.109-.7-.627.133-.7,1.813.488,2.449.247.933.416,3.016,1.715,4.277s4.493,1.483,6.758.241a4.827,4.827,0,0,0,2.359-2.945,1.5,1.5,0,0,1,2.7-.006,4.845,4.845,0,0,0,2.376,2.929c2.274,1.23,5.469.995,6.759-.273s1.446-3.351,1.693-4.287C522.971,1157.789,522.887,1156.107,522.257,1155.977Z" fill="none" stroke="#868787" stroke-miterlimit="10" stroke-width="1.289"/>
        <path id="패스_41" data-name="패스 41" d="M501.966,1162.611a3.183,3.183,0,0,1-3.079-3.255.546.546,0,1,1,1.092,0,2.088,2.088,0,0,0,1.981,2.162.546.546,0,0,1,.554.544A.556.556,0,0,1,501.966,1162.611Z" fill="none" stroke="#868787" stroke-miterlimit="10" stroke-width="1.289"/>
        <path id="패스_42" data-name="패스 42" d="M517.266,1162.573a.558.558,0,0,1-.546-.551.552.552,0,0,1,.549-.548,2.083,2.083,0,0,0,1.97-2.171.543.543,0,0,1,.542-.548.554.554,0,0,1,.551.55A3.185,3.185,0,0,1,517.266,1162.573Z" fill="none" stroke="#868787" stroke-miterlimit="10" stroke-width="1.289"/>
      </g>
      <g id="그룹_8" data-name="그룹 8">
        <path id="패스_43" data-name="패스 43" d="M528.866,1175.132a8.55,8.55,0,1,0,8.55-8.523A8.537,8.537,0,0,0,528.866,1175.132Z" fill="none" stroke="#868787" stroke-miterlimit="10" stroke-width="1.289"/>
        <path id="패스_44" data-name="패스 44" d="M535.8,1174.149a.3.3,0,0,1-.3-.3.729.729,0,0,0-1.458,0,.3.3,0,1,1-.594,0,1.323,1.323,0,0,1,2.645,0A.3.3,0,0,1,535.8,1174.149Z" fill="none" stroke="#868787" stroke-miterlimit="10" stroke-width="1.289"/>
        <path id="패스_45" data-name="패스 45" d="M541.087,1174.149a.3.3,0,0,1-.3-.3.73.73,0,0,0-1.46,0,.3.3,0,1,1-.594,0,1.323,1.323,0,0,1,2.645,0A.3.3,0,0,1,541.087,1174.149Z" fill="none" stroke="#868787" stroke-miterlimit="10" stroke-width="1.289"/>
        <path id="패스_46" data-name="패스 46" d="M533.141,1177.533a4.275,4.275,0,0,0,8.55,0Z" fill="none" stroke="#868787" stroke-miterlimit="10" stroke-width="1.289"/>
      </g>
      <g id="그룹_9" data-name="그룹 9">
        <path id="패스_47" data-name="패스 47" d="M476.842,1147.3a5.538,5.538,0,1,0,5.536-5.52A5.529,5.529,0,0,0,476.842,1147.3Z" fill="none" stroke="#868787" stroke-miterlimit="10" stroke-width="1.289"/>
        <path id="패스_48" data-name="패스 48" d="M481.333,1146.722a.193.193,0,0,1-.181-.126.677.677,0,0,0-.97,0,.192.192,0,0,1-.247.113.2.2,0,0,1-.114-.247,1.012,1.012,0,0,1,1.69,0,.194.194,0,0,1-.114.247A.257.257,0,0,1,481.333,1146.722Z" fill="none" stroke="#868787" stroke-miterlimit="10" stroke-width="1.289"/>
        <path id="패스_49" data-name="패스 49" d="M483.427,1146.722a.246.246,0,0,1-.067-.013.193.193,0,0,1-.112-.247,1.01,1.01,0,0,1,1.689,0,.193.193,0,0,1-.114.247.2.2,0,0,1-.248-.111.519.519,0,0,0-.483-.207.532.532,0,0,0-.487.2A.188.188,0,0,1,483.427,1146.722Z" fill="none" stroke="#868787" stroke-miterlimit="10" stroke-width="1.289"/>
        <path id="패스_50" data-name="패스 50" d="M482.379,1150.551a2.275,2.275,0,0,1-2.2-1.444.189.189,0,0,1,.121-.241.193.193,0,0,1,.243.122,2.023,2.023,0,0,0,3.677,0,.191.191,0,0,1,.364.118A2.278,2.278,0,0,1,482.379,1150.551Z" fill="none" stroke="#868787" stroke-miterlimit="10" stroke-width="1.289"/>
        <path id="패스_51" data-name="패스 51" d="M478.758,1147.87a.571.571,0,1,0,.571-.568A.57.57,0,0,0,478.758,1147.87Z" fill="none" stroke="#868787" stroke-miterlimit="10" stroke-width="1.289"/>
        <path id="패스_52" data-name="패스 52" d="M486,1147.87a.571.571,0,1,1-.571-.568A.572.572,0,0,1,486,1147.87Z" fill="none" stroke="#868787" stroke-miterlimit="10" stroke-width="1.289"/>
      </g>
      <path id="패스_53" data-name="패스 53" d="M439.381,1163.271c24.929,4.906,36.5,23.15,36.5,23.15-8.445-18.01-33.312-27.276-33.312-27.276s-2.967-1.354-4.334.234C437.342,1160.41,437.859,1162.972,439.381,1163.271Z" fill="none" stroke="#868787" stroke-miterlimit="10" stroke-width="1.289"/>
      <path id="패스_54" data-name="패스 54" d="M587.542,1159.518c-31.929,7.088-46.245,30.927-46.245,30.927,10.3-23.441,42.016-36.139,42.016-36.139s3.778-1.835,5.587.166C590.075,1155.773,589.491,1159.085,587.542,1159.518Z" fill="none" stroke="#868787" stroke-miterlimit="10" stroke-width="1.289"/>
      <path id="패스_55" data-name="패스 55" d="M467.963,1157.816l-1.991,3.472,3.717.96-3.717.962,1.99,3.471-3.27-2.111-.9,3.945-.907-3.948-3.266,2.114,1.986-3.471-3.714-.96,3.714-.963-1.989-3.472,3.27,2.112.9-3.946.9,3.947Z" fill="none" stroke="#868787" stroke-miterlimit="10" stroke-width="1.289"/>
      <path id="패스_56" data-name="패스 56" d="M566.967,1154.473l-1.208,2.107,2.256.583-2.256.584,1.208,2.107-1.985-1.281-.549,2.394-.55-2.4-1.982,1.283,1.206-2.107-2.254-.583,2.254-.584-1.207-2.107,1.985,1.282.549-2.4.549,2.4Z" fill="none" stroke="#868787" stroke-miterlimit="10" stroke-width="1.289"/>
      <path id="패스_57" data-name="패스 57" d="M563.364,1200.023l-1.619,2.824,3.023.781-3.023.782,1.618,2.823-2.66-1.717-.736,3.208-.737-3.211-2.656,1.719,1.616-2.823-3.02-.781,3.02-.783-1.617-2.824,2.66,1.718.736-3.209.736,3.21Z" fill="none" stroke="#868787" stroke-miterlimit="10" stroke-width="1.289"/>
      <path id="패스_58" data-name="패스 58" d="M520.345,1134.262l-.818,1.427,1.528.395-1.528.4.818,1.426-1.344-.868-.372,1.621-.373-1.622-1.342.869.816-1.426-1.526-.394,1.526-.4-.817-1.427,1.344.868.372-1.621.372,1.622Z" fill="none" stroke="#868787" stroke-miterlimit="10" stroke-width="1.289"/>
      <path id="패스_59" data-name="패스 59" d="M548.967,1124.418l-1.442,2.514,2.692.7-2.692.7,1.441,2.513-2.368-1.529-.655,2.857-.657-2.859-2.365,1.531,1.438-2.513-2.689-.7,2.689-.7-1.44-2.514,2.368,1.529.655-2.857.655,2.858Z" fill="none" stroke="#868787" stroke-miterlimit="10" stroke-width="1.289"/>
      <g id="그룹_10" data-name="그룹 10">
        <path id="패스_60" data-name="패스 60" d="M542.462,1240.666l-30.745,8.849-2.1-35.566-2.111,35.522-30.737-8.805v-24.708l-3.823-1.432v28.929l36.67,11.073,36.671-11.073v-28.929l-3.823,1.432Z" fill="none" stroke="#868787" stroke-miterlimit="10" stroke-width="1.289"/>
        <path id="패스_61" data-name="패스 61" d="M509.614,1208.6l-34.355-10.8-12.425,9.525,36.107,12.9Z" fill="none" stroke="#868787" stroke-miterlimit="10" stroke-width="1.289"/>
        <path id="패스_62" data-name="패스 62" d="M556.395,1207.322,543.97,1197.8l-34.356,10.8,10.673,11.623Z" fill="none" stroke="#868787" stroke-miterlimit="10" stroke-width="1.289"/>
      </g>
    </g>
  </g>
</svg>
