<svg xmlns="http://www.w3.org/2000/svg" xmlns:xlink="http://www.w3.org/1999/xlink" width="1920" height="520" viewBox="0 0 1920 520">
  <defs>
    <clipPath id="clip-path">
      <rect id="Rectangle_15" data-name="Rectangle 15" width="1920" height="520" transform="translate(0 780)" fill="#f5f5f5"/>
    </clipPath>
  </defs>
  <g id="_1_dept" data-name="1_dept" transform="translate(0 -780)">
    <g id="bg">
      <g id="Rectangle_15-2" data-name="Rectangle 15">
        <rect id="Rectangle_15-3" data-name="Rectangle 15" width="1920" height="520" transform="translate(0 780)" fill="#f5f5f5"/>
        <g id="Clip" clip-path="url(#clip-path)">
          <g id="Vector_Smart_Object" data-name="Vector Smart Object" transform="translate(-1705.647 -252.265)">
            <g id="그룹_28" data-name="그룹 28">
              <path id="패스_63" data-name="패스 63" d="M2250.634,1351.413l-3.586,8.733,6.873,7.227,11.655-5.119.3-8.733Z" fill="#fab918"/>
              <path id="패스_64" data-name="패스 64" d="M2442.39,1381.886l-168.247-54.807-168.845,54.2,17.931,6.223,150.914-45.371,148.325,46.576Z" fill="#e33c23"/>
              <path id="패스_65" data-name="패스 65" d="M1973.259,1264.342c40.8-1.755,70.236,5.747,88.49,25.461-24.509-37.2-54.68-54.438-90.237-49.385-5.717.81-9.233,6.877-8.81,12.675S1967.5,1264.587,1973.259,1264.342Z" fill="#eb810e" fill-rule="evenodd"/>
              <path id="패스_66" data-name="패스 66" d="M2500.759,1290.887q47.186-27.939,84.216-16.343a13.93,13.93,0,0,1,4.3,24.336c-4.127,3.149-10.019,4.372-14.306,1.454C2556.7,1287.877,2531.132,1284.482,2500.759,1290.887Z" fill="#eb810e" fill-rule="evenodd"/>
              <path id="패스_67" data-name="패스 67" d="M2200.875,1102.3q-14.3-76.1-57.837-105.222a16.892,16.892,0,0,0-18.773-.324,19.475,19.475,0,0,0-8.447,17.927c.565,7.3,4.536,14.736,11.1,16.662C2154.89,1039.565,2180.507,1063.888,2200.875,1102.3Z" fill="#eb810e" fill-rule="evenodd"/>
              <path id="패스_68" data-name="패스 68" d="M2498.76,1070.515c-30.437,10.4-55.328,25.114-74.451,44.824q17.241-49.376,57.892-76.8a18.036,18.036,0,0,1,28.158,16.486A17.768,17.768,0,0,1,2498.76,1070.515Z" fill="#eb810e" fill-rule="evenodd"/>
              <g id="그룹_12" data-name="그룹 12">
                <path id="패스_69" data-name="패스 69" d="M2430.173,1346.07a60.389,60.389,0,0,1-11.972,58.615,58.781,58.781,0,0,1-10.92,9.762,59.77,59.77,0,0,1-31.738,10.526,57.874,57.874,0,0,1-14.555-1.334,59.738,59.738,0,0,1-44.165-39.989c-10.308-31.519,6.737-65.52,38.034-75.9A59.563,59.563,0,0,1,2430.173,1346.07Z" fill="#fab918"/>
                <path id="패스_70" data-name="패스 70" d="M2354.532,1360.616l21.011,64.358a57.874,57.874,0,0,1-14.555-1.334l-19.2-58.809Z" fill="#58bced"/>
                <path id="패스_71" data-name="패스 71" d="M2358.719,1364.775a2.022,2.022,0,0,1-2.155-.546c-.717-.774-3.575-1.338-7.4-.074s-5.8,3.441-5.919,4.5a2.069,2.069,0,0,1-2.28,1.825,2.093,2.093,0,0,1-1.834-2.311c.354-3.149,3.883-6.354,8.75-7.961s9.559-1.144,11.715,1.181a2.115,2.115,0,0,1-.106,2.95A1.93,1.93,0,0,1,2358.719,1364.775Z" fill="#070303"/>
                <path id="패스_72" data-name="패스 72" d="M2398.982,1345.876l19.219,58.81a58.781,58.781,0,0,1-10.92,9.762l-21-64.353Z" fill="#58bced"/>
                <path id="패스_73" data-name="패스 73" d="M2402.245,1350.363a2.1,2.1,0,0,1-2.169-.57c-.7-.773-3.562-1.329-7.4-.056-3.819,1.26-5.786,3.427-5.9,4.46a2.07,2.07,0,1,1-4.113-.463c.359-3.149,3.865-6.354,8.718-7.956,4.89-1.626,9.591-1.125,11.728,1.19a2.083,2.083,0,0,1-.105,2.941A1.965,1.965,0,0,1,2402.245,1350.363Z" fill="#070303"/>
                <path id="패스_74" data-name="패스 74" d="M2374.156,1397.058c2.05,6.312,7.712,10.109,12.624,8.475s7.243-8.063,5.179-14.379-7.716-10.1-12.634-8.47S2372.083,1390.755,2374.156,1397.058Z" fill="#751019"/>
              </g>
              <g id="그룹_13" data-name="그룹 13">
                <path id="패스_75" data-name="패스 75" d="M2080.858,1237.037a53.2,53.2,0,0,0,58.77,47.13c29.137-3.339,50.075-29.847,46.766-59.217a53.114,53.114,0,1,0-105.536,12.087Z" fill="#fab918"/>
                <path id="패스_76" data-name="패스 76" d="M2137.367,1264.138c-12.344,1.412-24.118-4.566-28.627-14.546a1.85,1.85,0,0,1,.91-2.45,1.826,1.826,0,0,1,2.436.912c3.851,8.535,14.081,13.634,24.863,12.4s19.605-8.512,21.462-17.7a1.842,1.842,0,1,1,3.608.741C2159.844,1254.232,2149.706,1262.726,2137.367,1264.138Z" fill="#070303"/>
                <path id="패스_77" data-name="패스 77" d="M2110.077,1225.613c.5,4.409,3.736,7.65,7.229,7.248s5.933-4.293,5.432-8.693-3.741-7.655-7.229-7.257S2109.577,1221.213,2110.077,1225.613Z" fill="#070303"/>
                <path id="패스_78" data-name="패스 78" d="M2142.712,1221.88c.5,4.4,3.736,7.646,7.234,7.248s5.933-4.3,5.432-8.7-3.736-7.66-7.224-7.257S2142.215,1217.471,2142.712,1221.88Z" fill="#070303"/>
              </g>
              <g id="그룹_14" data-name="그룹 14">
                <path id="패스_79" data-name="패스 79" d="M2419.3,1151.771a31.879,31.879,0,0,0,21.568,39.429,31.813,31.813,0,1,0-21.568-39.429Z" fill="#fab918"/>
                <path id="패스_80" data-name="패스 80" d="M2446.768,1180.247a1.1,1.1,0,0,1-.745-1.366,1.087,1.087,0,0,1,1.356-.75c1.48.435,2.808-.023,3.015-.713.087-.329-.611-1.116-1.255-1.547-1.02-.676-.988-1.426-.883-1.8s.482-1.028,1.71-1.051c.767-.019,1.769-.306,1.875-.644a1.217,1.217,0,0,0-.244-1.037c-.312-.435-1.19-1.176-3.465-1.227a1.1,1.1,0,0,1,.051-2.2c3.056.06,4.5,1.186,5.179,2.116a3.442,3.442,0,0,1,.584,2.959,3.187,3.187,0,0,1-2.454,2.024,3.224,3.224,0,0,1,1,3.024C2451.906,1180.048,2449.4,1181.016,2446.768,1180.247Z" fill="#070303"/>
                <path id="패스_81" data-name="패스 81" d="M2437.434,1153.975a1.119,1.119,0,0,1-.34-.171,1.1,1.1,0,0,1-.23-1.538c1-1.352,3.139-1.825,5.354-1.181s3.782,2.2,3.906,3.876a1.11,1.11,0,0,1-1.011,1.181,1.1,1.1,0,0,1-1.177-1.014c-.046-.63-.928-1.514-2.33-1.927s-2.615-.139-2.983.366A1.09,1.09,0,0,1,2437.434,1153.975Z" fill="#070303"/>
                <path id="패스_82" data-name="패스 82" d="M2456.208,1159.454a1.009,1.009,0,0,1-.349-.181,1.1,1.1,0,0,1-.216-1.542c.975-1.343,3.125-1.815,5.345-1.167s3.778,2.2,3.893,3.867a1.09,1.09,0,1,1-2.174.167c-.041-.625-.933-1.514-2.325-1.922s-2.624-.13-2.992.37A1.091,1.091,0,0,1,2456.208,1159.454Z" fill="#070303"/>
              </g>
              <g id="그룹_15" data-name="그룹 15">
                <path id="패스_83" data-name="패스 83" d="M2107.366,1382.577a41.018,41.018,0,0,0,53.388,23.169,41.538,41.538,0,0,0,22.992-53.794,41,41,0,0,0-53.393-23.178A41.526,41.526,0,0,0,2107.366,1382.577Z" fill="#fab918"/>
                <path id="패스_84" data-name="패스 84" d="M2126.889,1368.045a4.92,4.92,0,0,0,6.4,2.792,5,5,0,0,0,2.762-6.46,4.935,4.935,0,1,0-9.164,3.668Z" fill="#070303"/>
                <path id="패스_85" data-name="패스 85" d="M2150.506,1358.583a4.9,4.9,0,0,0,6.406,2.779,4.973,4.973,0,0,0,2.753-6.456,4.883,4.883,0,0,0-6.393-2.77A4.949,4.949,0,0,0,2150.506,1358.583Z" fill="#070303"/>
                <path id="패스_86" data-name="패스 86" d="M2163.241,1387.361a1.111,1.111,0,0,1-.538.106l-19.619-.25a1.413,1.413,0,0,1-1.379-1.445,1.433,1.433,0,0,1,1.434-1.422l19.6.259a1.423,1.423,0,0,1,1.411,1.45A1.456,1.456,0,0,1,2163.241,1387.361Z" fill="#070303"/>
                <path id="패스_87" data-name="패스 87" d="M2146.411,1394.122a1.408,1.408,0,0,1-1.544-.329,1.444,1.444,0,0,1,.032-2.037l14.081-13.764a1.409,1.409,0,0,1,2,.046,1.429,1.429,0,0,1-.037,2.015l-14.067,13.754A1.167,1.167,0,0,1,2146.411,1394.122Z" fill="#070303"/>
              </g>
              <g id="그룹_16" data-name="그룹 16">
                <path id="패스_88" data-name="패스 88" d="M2231.041,1327.278a41.086,41.086,0,1,0,33.834-47.579A41.118,41.118,0,0,0,2231.041,1327.278Z" fill="#fab918"/>
                <path id="패스_89" data-name="패스 89" d="M2253.169,1317.307a4.931,4.931,0,1,0,4.058-5.705A4.928,4.928,0,0,0,2253.169,1317.307Z" fill="#070303"/>
                <path id="패스_90" data-name="패스 90" d="M2278.23,1313.135a4.931,4.931,0,1,0,4.058-5.705A4.933,4.933,0,0,0,2278.23,1313.135Z" fill="#070303"/>
                <path id="패스_91" data-name="패스 91" d="M2293.671,1339.226c-2.371.394-3.819-1.468-4.9-2.839-.919-1.181-1.531-1.894-2.211-1.783-.653.111-1,.982-1.5,2.4-.57,1.644-1.37,3.881-3.736,4.279s-3.847-1.468-4.9-2.839c-.928-1.186-1.544-1.9-2.206-1.792s-1.025.986-1.512,2.408c-.579,1.644-1.374,3.881-3.746,4.274s-3.833-1.468-4.9-2.839c-.928-1.181-1.535-1.9-2.206-1.783s-1.025.986-1.516,2.4c-.588,1.653-1.37,3.885-3.741,4.279a1.422,1.422,0,0,1-1.645-1.167,1.448,1.448,0,0,1,1.181-1.658c.667-.111,1.016-.977,1.517-2.408.579-1.63,1.374-3.876,3.745-4.274s3.842,1.477,4.908,2.834c.928,1.19,1.526,1.9,2.2,1.792s1.02-.982,1.517-2.417c.579-1.625,1.36-3.871,3.745-4.27s3.828,1.482,4.895,2.843c.928,1.186,1.54,1.9,2.206,1.792s1.016-.982,1.516-2.408c.574-1.63,1.356-3.885,3.723-4.279,2.385-.394,3.842,1.477,4.908,2.834.933,1.19,1.549,1.908,2.206,1.792a1.431,1.431,0,1,1,.46,2.825Z" fill="#070303"/>
              </g>
              <g id="그룹_17" data-name="그룹 17">
                <path id="패스_92" data-name="패스 92" d="M2466.585,1317.77A26.553,26.553,0,0,0,2478.5,1353.2a26.157,26.157,0,0,0,35.152-12,26.527,26.527,0,0,0-11.907-35.414A26.152,26.152,0,0,0,2466.585,1317.77Z" fill="#fab918"/>
                <path id="패스_93" data-name="패스 93" d="M2485.207,1324.819c-.069-.037-.147-.07-.225-.12l-5.322-3.441a.908.908,0,1,1,.965-1.537l4.435,2.853-1.255-5.15a.91.91,0,1,1,1.765-.44l1.521,6.192a1.434,1.434,0,0,1-.459,1.607A1.307,1.307,0,0,1,2485.207,1324.819Z" fill="#070303"/>
                <path id="패스_94" data-name="패스 94" d="M2496.788,1330.575a1.338,1.338,0,0,1-.845-1.153,1.427,1.427,0,0,1,1-1.338l5.8-2.561a.912.912,0,0,1,1.195.477.922.922,0,0,1-.469,1.2l-4.816,2.126,4.94,1.815a.908.908,0,0,1,.537,1.167.887.887,0,0,1-1.158.551l-5.952-2.172C2496.939,1330.654,2496.857,1330.617,2496.788,1330.575Z" fill="#070303"/>
                <path id="패스_95" data-name="패스 95" d="M2475.758,1336.984a9.685,9.685,0,0,0,4.347,12.939,9.544,9.544,0,0,0,12.831-4.381,9.693,9.693,0,0,0-4.347-12.939A9.549,9.549,0,0,0,2475.758,1336.984Z" fill="#751019"/>
                <path id="패스_96" data-name="패스 96" d="M2480.105,1349.923a9.506,9.506,0,0,0,5.777.871,6.827,6.827,0,0,0-3.741-5.029,6.738,6.738,0,0,0-6.231.065A9.556,9.556,0,0,0,2480.105,1349.923Z" fill="#d33479"/>
              </g>
              <g id="그룹_18" data-name="그룹 18">
                <path id="패스_97" data-name="패스 97" d="M2003.59,1344.329a29.538,29.538,0,1,0,22.657-35.349A29.522,29.522,0,0,0,2003.59,1344.329Z" fill="#fab918"/>
                <path id="패스_98" data-name="패스 98" d="M2023.563,1340.134a4.564,4.564,0,0,1-5.427-3.52,1.023,1.023,0,0,1,.79-1.218,1,1,0,0,1,1.209.773,2.517,2.517,0,0,0,2.992,1.959,2.551,2.551,0,0,0,1.939-3.02,1.024,1.024,0,0,1,2-.444A4.612,4.612,0,0,1,2023.563,1340.134Z" fill="#070303"/>
                <path id="패스_99" data-name="패스 99" d="M2041.408,1336.266a4.562,4.562,0,0,1-5.418-3.529,1.047,1.047,0,0,1,.786-1.232,1.023,1.023,0,0,1,1.2.792,2.524,2.524,0,1,0,4.936-1.061,1.026,1.026,0,1,1,2-.44A4.626,4.626,0,0,1,2041.408,1336.266Z" fill="#070303"/>
                <path id="패스_100" data-name="패스 100" d="M2035.549,1352.54a24.615,24.615,0,0,1-9.3.208,1.029,1.029,0,0,1,.345-2.029,22.616,22.616,0,0,0,16.388-3.561,1.013,1.013,0,0,1,1.406.278,1.053,1.053,0,0,1-.276,1.445A24.872,24.872,0,0,1,2035.549,1352.54Z" fill="#070303"/>
                <path id="패스_101" data-name="패스 101" d="M2050.719,1319.16l-8.084,1.755a1.582,1.582,0,0,1-1.774-.565,1.621,1.621,0,0,1,.115-1.866l5.3-8.285-6.99,1.519a1.04,1.04,0,0,1-1.223-.792,1.014,1.014,0,0,1,.786-1.213l8.079-1.765a1.6,1.6,0,0,1,1.774.556,1.622,1.622,0,0,1-.1,1.88l-5.313,8.28,6.995-1.533a1.041,1.041,0,0,1,1.218.792A1.028,1.028,0,0,1,2050.719,1319.16Z" fill="#070303"/>
                <path id="패스_102" data-name="패스 102" d="M2061.253,1306.169l-5.731,1.241a1.61,1.61,0,0,1-1.783-.551,1.646,1.646,0,0,1,.11-1.885l3.47-5.409-4.651,1.019a1.02,1.02,0,0,1-1.218-.792,1.04,1.04,0,0,1,.786-1.227l5.736-1.236a1.593,1.593,0,0,1,1.774.551,1.657,1.657,0,0,1-.115,1.885l-3.456,5.391,4.642-1.01a1.035,1.035,0,0,1,.437,2.024Z" fill="#070303"/>
              </g>
              <g id="그룹_19" data-name="그룹 19">
                <path id="패스_103" data-name="패스 103" d="M2358.457,1071.589a25.22,25.22,0,0,0,12.9,33.079,24.886,24.886,0,0,0,32.836-13.018,25.21,25.21,0,0,0-12.914-33.08A24.863,24.863,0,0,0,2358.457,1071.589Z" fill="#fab918"/>
                <path id="패스_104" data-name="패스 104" d="M2373,1073.858c-.823,1.9-.267,3.983,1.255,4.654s3.419-.347,4.237-2.241c.827-1.917.266-4-1.25-4.668S2373.83,1071.946,2373,1073.858Z" fill="#070303"/>
                <path id="패스_105" data-name="패스 105" d="M2387.148,1080.064c-.823,1.9-.262,3.992,1.255,4.663s3.41-.357,4.237-2.255.267-4.006-1.245-4.663S2387.971,1078.151,2387.148,1080.064Z" fill="#070303"/>
                <path id="패스_106" data-name="패스 106" d="M2366.564,1060.021a6.064,6.064,0,0,0,3.1,7.947,5.967,5.967,0,0,0,7.877-3.126c1.324-3.057-1.3-12.092-1.3-12.092S2367.874,1056.974,2366.564,1060.021Z" fill="#58bced"/>
                <path id="패스_107" data-name="패스 107" d="M2370.291,1066.513a4.456,4.456,0,0,1-2.289-5.858,4.406,4.406,0,0,1,1.007-1.454.869.869,0,0,1,1.181,1.273,2.9,2.9,0,0,0-.611.88,2.729,2.729,0,0,0,1.392,3.566.88.88,0,0,1,.451,1.144A.857.857,0,0,1,2370.291,1066.513Z" fill="#fff"/>
                <path id="패스_108" data-name="패스 108" d="M2387.92,1096.722c-1.094,2.542-4.361,3.571-7.257,2.292l-11.512-5.039c-2.9-1.278-4.393-4.39-3.295-6.933s4.37-3.557,7.284-2.283l11.5,5.048C2387.543,1091.076,2389.014,1094.2,2387.92,1096.722Z" fill="#fff"/>
              </g>
              <g id="그룹_20" data-name="그룹 20">
                <path id="패스_109" data-name="패스 109" d="M2215.751,1032.735a20.711,20.711,0,1,0,20.713-20.872A20.795,20.795,0,0,0,2215.751,1032.735Z" fill="#fab918"/>
                <path id="패스_110" data-name="패스 110" d="M2230.324,1045.623a.726.726,0,0,1-.271-1.4,17.193,17.193,0,0,1,12.822,0,.726.726,0,0,1,.4.936.712.712,0,0,1-.928.412,15.757,15.757,0,0,0-11.765,0A.709.709,0,0,1,2230.324,1045.623Z" fill="#070303"/>
                <path id="패스_111" data-name="패스 111" d="M2232,1032.276a.692.692,0,0,1-.506-.208l-3.879-3.909a.727.727,0,0,1,0-1.023.709.709,0,0,1,1.011,0l3.883,3.909a.728.728,0,0,1,0,1.023A.717.717,0,0,1,2232,1032.276Z" fill="#070303"/>
                <path id="패스_112" data-name="패스 112" d="M2228.118,1032.276a.684.684,0,0,1-.505-.208.728.728,0,0,1,0-1.023l3.879-3.909a.715.715,0,0,1,1.016,0,.727.727,0,0,1,0,1.023l-3.883,3.909A.684.684,0,0,1,2228.118,1032.276Z" fill="#070303"/>
                <path id="패스_113" data-name="패스 113" d="M2244.805,1032.276a.707.707,0,0,1-.506-.208l-3.874-3.909a.723.723,0,0,1,1.02-1.023l3.87,3.909a.72.72,0,0,1,0,1.023A.7.7,0,0,1,2244.805,1032.276Z" fill="#070303"/>
                <path id="패스_114" data-name="패스 114" d="M2240.927,1032.276a.7.7,0,0,1-.5-.208.72.72,0,0,1,0-1.023l3.874-3.909a.721.721,0,0,1,1.016,1.023l-3.87,3.909A.738.738,0,0,1,2240.927,1032.276Z" fill="#070303"/>
              </g>
              <g id="그룹_21" data-name="그룹 21">
                <path id="패스_115" data-name="패스 115" d="M2192.428,1175.218c.129,45.305,36.674,81.918,81.629,81.8s81.316-36.923,81.206-82.252c-.124-45.287-36.678-81.937-81.629-81.821S2192.3,1129.88,2192.428,1175.218Z" fill="#fab918"/>
                <path id="패스_116" data-name="패스 116" d="M2273.983,1226.761a47.018,47.018,0,0,1-19.077-3.862,2.829,2.829,0,0,1,2.215-5.205,40.893,40.893,0,0,0,16.862,3.381c13.911-.046,26.54-6.6,32.887-17.214a2.807,2.807,0,0,1,3.879-1,2.872,2.872,0,0,1,.96,3.936C2304.338,1219.05,2289.857,1226.743,2273.983,1226.761Z" fill="#070303"/>
                <path id="패스_117" data-name="패스 117" d="M2314.665,1198.947a2.44,2.44,0,1,1-2.44-2.445A2.439,2.439,0,0,1,2314.665,1198.947Z" fill="#070303"/>
                <path id="패스_118" data-name="패스 118" d="M2339.013,1147.631c-20.5-4.219-41.251-3.8-57.23,3.941a18.653,18.653,0,0,1-7.973,2.348,19.3,19.3,0,0,1-8.033-2.292c-16.021-7.664-36.77-7.97-57.258-3.635-3.235.69-3.631,9.452,2.518,12.763,1.269,4.858,2.142,15.708,8.833,22.285,6.673,6.548,23.158,7.725,34.835,1.25,7.868-4.339,10.368-10.262,12.16-15.343,1.02-2.806,4.435-4.279,6.963-4.4,2.5.1,5.915,1.547,6.958,4.372,1.852,5.085,4.366,10.957,12.243,15.264,11.724,6.4,28.2,5.178,34.84-1.426,6.664-6.632,7.459-17.464,8.727-22.335C2342.694,1157.073,2342.257,1148.3,2339.013,1147.631Z" fill="#070303"/>
                <path id="패스_119" data-name="패스 119" d="M2234.419,1182.2c-8.718.019-15.846-7.632-15.869-16.964a2.815,2.815,0,1,1,5.63-.014c.028,6.21,4.609,11.263,10.212,11.263a2.836,2.836,0,0,1,2.849,2.844A2.885,2.885,0,0,1,2234.419,1182.2Z" fill="#fff"/>
                <path id="패스_120" data-name="패스 120" d="M2313.286,1182a2.893,2.893,0,0,1-2.817-2.871,2.862,2.862,0,0,1,2.831-2.857c5.588-.014,10.175-5.1,10.152-11.309a2.814,2.814,0,0,1,2.794-2.862,2.872,2.872,0,0,1,2.84,2.867C2329.1,1174.278,2322.018,1181.974,2313.286,1182Z" fill="#fff"/>
              </g>
              <g id="그룹_22" data-name="그룹 22">
                <path id="패스_121" data-name="패스 121" d="M2373.081,1247.439a44.07,44.07,0,1,0,44.068-44.407A44.241,44.241,0,0,0,2373.081,1247.439Z" fill="#fab918"/>
                <path id="패스_122" data-name="패스 122" d="M2408.817,1242.312a1.547,1.547,0,0,1-1.535-1.547,3.759,3.759,0,1,0-7.519,0,1.528,1.528,0,1,1-3.056,0,6.816,6.816,0,1,1,13.631,0A1.532,1.532,0,0,1,2408.817,1242.312Z" fill="#070303"/>
                <path id="패스_123" data-name="패스 123" d="M2436.074,1242.312a1.536,1.536,0,0,1-1.526-1.547,3.766,3.766,0,1,0-7.533,0,1.528,1.528,0,1,1-3.056,0,6.818,6.818,0,1,1,13.635,0A1.535,1.535,0,0,1,2436.074,1242.312Z" fill="#070303"/>
                <path id="패스_124" data-name="패스 124" d="M2395.117,1259.943a22.035,22.035,0,1,0,44.068,0Z" fill="#fff"/>
              </g>
              <g id="그룹_23" data-name="그룹 23">
                <path id="패스_125" data-name="패스 125" d="M2104.921,1102.427a28.542,28.542,0,1,0,28.535-28.763A28.653,28.653,0,0,0,2104.921,1102.427Z" fill="#fab918"/>
                <path id="패스_126" data-name="패스 126" d="M2128.06,1099.4a.987.987,0,0,1-.928-.658,3.456,3.456,0,0,0-5,0,.989.989,0,0,1-1.273.593,1.017,1.017,0,0,1-.579-1.287c.524-1.417,2.27-2.376,4.357-2.376s3.828.959,4.352,2.376a1.011,1.011,0,0,1-.584,1.287A1.359,1.359,0,0,1,2128.06,1099.4Z" fill="#070303"/>
                <path id="패스_127" data-name="패스 127" d="M2138.86,1099.4a1.358,1.358,0,0,1-.349-.065,1.013,1.013,0,0,1-.579-1.287c.524-1.417,2.27-2.376,4.357-2.376,2.068,0,3.833.959,4.348,2.376a1.011,1.011,0,0,1-.584,1.287,1,1,0,0,1-1.273-.579,2.675,2.675,0,0,0-2.491-1.084,2.717,2.717,0,0,0-2.509,1.07A.971.971,0,0,1,2138.86,1099.4Z" fill="#070303"/>
                <path id="패스_128" data-name="패스 128" d="M2133.456,1119.358c-5.248,0-9.917-3.1-11.351-7.53a.989.989,0,1,1,1.88-.616c1.163,3.631,5.064,6.145,9.472,6.145s8.314-2.515,9.486-6.145a.987.987,0,1,1,1.875.616C2143.378,1116.26,2138.713,1119.358,2133.456,1119.358Z" fill="#070303"/>
                <path id="패스_129" data-name="패스 129" d="M2114.793,1105.386a2.941,2.941,0,1,0,2.946-2.959A2.959,2.959,0,0,0,2114.793,1105.386Z" fill="#d33479"/>
                <path id="패스_130" data-name="패스 130" d="M2152.128,1105.386a2.941,2.941,0,1,1-2.941-2.959A2.964,2.964,0,0,1,2152.128,1105.386Z" fill="#d33479"/>
              </g>
              <g id="그룹_24" data-name="그룹 24">
                <path id="패스_131" data-name="패스 131" d="M2157.248,1388.032c-2.96,30.273,18.99,57.221,49.032,60.194A54.756,54.756,0,0,0,2266,1398.813c2.96-30.264-18.994-57.212-49.022-60.194A54.75,54.75,0,0,0,2157.248,1388.032Z" fill="#fab918"/>
                <path id="패스_132" data-name="패스 132" d="M2203.8,1366.785a8.915,8.915,0,0,0-12.211,1.107l-1.567,1.769-1.824-1.505a8.909,8.909,0,0,0-12.234.783,8.23,8.23,0,0,0,1.075,11.8l14.757,12.23,12.721-14.342A8.218,8.218,0,0,0,2203.8,1366.785Z" fill="#b00017"/>
                <path id="패스_133" data-name="패스 133" d="M2224.432,1368.832a8.916,8.916,0,0,1,11.76,3.482l1.2,2.042,2.073-1.121a8.91,8.91,0,0,1,11.843,3.163,8.2,8.2,0,0,1-3.341,11.369l-16.82,9.091-9.706-16.574A8.2,8.2,0,0,1,2224.432,1368.832Z" fill="#b00017"/>
                <path id="패스_134" data-name="패스 134" d="M2182.929,1406.153a27.323,27.323,0,1,0,54.376,5.4Z" fill="#751019"/>
                <path id="패스_135" data-name="패스 135" d="M2221.565,1433.875c-1.572-4.631-6.668-8.336-13.015-8.97-6.365-.63-12.068,2.005-14.49,6.229a27.222,27.222,0,0,0,27.505,2.742Z" fill="#d33479"/>
              </g>
              <path id="패스_136" data-name="패스 136" d="M1911.814,1185.637c128.5,25.559,188.121,120.62,188.121,120.62-43.526-93.839-171.7-142.122-171.7-142.122s-15.294-7.062-22.344,1.213C1901.313,1170.726,1903.969,1184.077,1911.814,1185.637Z" fill="#eb810e"/>
              <path id="패스_137" data-name="패스 137" d="M2675.529,1166.081c-164.586,36.932-238.375,161.151-238.375,161.151,53.117-122.139,216.582-188.307,216.582-188.307s19.472-9.568,28.8.861C2688.59,1146.561,2685.58,1163.825,2675.529,1166.081Z" fill="#eb810e"/>
              <path id="패스_138" data-name="패스 138" d="M2059.146,1157.212l-10.263,18.089,19.159,5-19.159,5.014,10.256,18.084-16.856-11-4.663,20.556-4.673-20.569-16.835,11.014,10.239-18.084-19.142-5,19.142-5.016-10.251-18.089,16.858,11,4.662-20.559,4.663,20.563Z" fill="#e66b12"/>
              <path id="패스_139" data-name="패스 139" d="M2569.474,1139.788l-6.229,10.981,11.63,3.038-11.63,3.043,6.226,10.977-10.231-6.678-2.831,12.477-2.837-12.485-10.218,6.685,6.215-10.977-11.62-3.036,11.62-3.044-6.223-10.981,10.233,6.68,2.829-12.48,2.831,12.483Z" fill="#e66b12"/>
              <path id="패스_140" data-name="패스 140" d="M2550.9,1377.137l-8.347,14.713,15.584,4.07L2542.556,1400l8.342,14.709-13.709-8.948-3.793,16.719-3.8-16.73-13.692,8.958L2524.23,1400l-15.569-4.069,15.569-4.079-8.337-14.713,13.712,8.951,3.791-16.721,3.793,16.725Z" fill="#e66b12"/>
              <path id="패스_141" data-name="패스 141" d="M2329.158,1034.48l-4.217,7.434,7.874,2.056-7.874,2.06,4.214,7.432-6.927-4.521-1.916,8.447-1.921-8.452-6.918,4.526,4.208-7.432-7.866-2.056,7.866-2.061-4.212-7.434L2318.4,1039l1.916-8.449,1.916,8.45Z" fill="#e66b12"/>
              <path id="패스_142" data-name="패스 142" d="M2476.692,983.184l-7.431,13.1,13.874,3.624-13.874,3.63,7.427,13.1-12.206-7.968-3.376,14.886-3.385-14.895-12.19,7.977,7.414-13.1-13.861-3.622,13.861-3.632-7.423-13.1,12.208,7.969,3.375-14.888,3.376,14.891Z" fill="#e66b12"/>
              <g id="그룹_26" data-name="그룹 26">
                <g id="그룹_25" data-name="그룹 25">
                  <path id="패스_143" data-name="패스 143" d="M2349.872,1418.454c6.512-31.6-13.617-62.533-44.987-69.09a58,58,0,0,0-68.563,45.347,58.667,58.667,0,0,0,19.063,56.253l8.3-10.489,61.256,8.8,1.811,4.816A58.2,58.2,0,0,0,2349.872,1418.454Z" fill="#fab918"/>
                </g>
                <path id="패스_144" data-name="패스 144" d="M2275.279,1404.185a9.037,9.037,0,0,1-6.967-10.684,2.007,2.007,0,1,1,3.929.82,5,5,0,0,0,3.86,5.9,4.953,4.953,0,0,0,5.841-3.867,2.011,2.011,0,1,1,3.938.82A8.976,8.976,0,0,1,2275.279,1404.185Z" fill="#070303"/>
                <path id="패스_145" data-name="패스 145" d="M2310.386,1411.526a9.042,9.042,0,0,1-6.953-10.684,2.012,2.012,0,0,1,3.939.82,4.953,4.953,0,1,0,9.7,2.024,2,2,0,0,1,2.362-1.556,2.028,2.028,0,0,1,1.576,2.394A8.983,8.983,0,0,1,2310.386,1411.526Z" fill="#070303"/>
                <path id="패스_146" data-name="패스 146" d="M2258.956,1436.64a1.583,1.583,0,0,1-.579-.222,2.036,2.036,0,0,1-.754-2.769c5.892-10.387,19.293-15.708,32.561-12.934s23.47,13.041,24.762,24.929a2.008,2.008,0,1,1-3.994.431c-1.117-10.156-9.982-18.983-21.577-21.409s-23.217,2.112-28.268,10.98A1.954,1.954,0,0,1,2258.956,1436.64Z" fill="#070303"/>
              </g>
              <g id="그룹_27" data-name="그룹 27">
                <path id="패스_147" data-name="패스 147" d="M2443.159,1609.031,2284.68,1655.14l-10.836-185.322-10.879,185.095-158.436-45.882V1480.289l-19.7-7.46v150.737l189.02,57.7,189.023-57.7V1472.83l-19.708,7.46Z" fill="#e33c23"/>
                <path id="패스_148" data-name="패스 148" d="M2273.844,1441.922l-177.087-56.266-64.048,49.632,186.117,67.2Z" fill="#e33c23"/>
                <path id="패스_149" data-name="패스 149" d="M2514.979,1435.288l-64.045-49.632-177.091,56.266,55.017,60.562Z" fill="#e33c23"/>
              </g>
            </g>
          </g>
        </g>
      </g>
    </g>
    <g id="title">
      <text id="EmoticBox는_모든_플랫폼이_쓸_수_있는_이모티콘_SDK_입니다." data-name="EmoticBox는 모든 플랫폼이 
쓸 수 있는 이모티콘 SDK 입니다." transform="translate(1095.338 1002.158)" fill="#333" font-size="32" font-family="Helvetica" letter-spacing="-0.04em"><tspan x="0" y="0">EmoticBox</tspan><tspan y="0" font-family="AppleSDGothicNeo-Regular, Apple SD Gothic Neo">는</tspan><tspan y="0"> </tspan><tspan y="0" font-family="AppleSDGothicNeo-Regular, Apple SD Gothic Neo">모든</tspan><tspan y="0"> </tspan><tspan y="0" font-family="AppleSDGothicNeo-Regular, Apple SD Gothic Neo">플랫폼이</tspan><tspan y="0"> </tspan><tspan font-family="AppleSDGothicNeo-Regular, Apple SD Gothic Neo"><tspan x="0" y="40">쓸</tspan><tspan y="40" font-family="Helvetica"> </tspan><tspan y="40">수</tspan><tspan y="40" font-family="Helvetica"> </tspan><tspan y="40">있는</tspan><tspan y="40" font-family="Helvetica"> </tspan><tspan y="40">이모티콘</tspan><tspan y="40" xml:space="preserve" font-family="Helvetica"> SDK </tspan><tspan y="40">입니다</tspan><tspan y="40" font-family="Helvetica">.</tspan></tspan></text>
      <text id="EmoticStudio에_등록된_이모티콘은_EmoticBox를_통해_여러_플랫폼_유저들에게_사용_됩니다." data-name="EmoticStudio에 등록된 이모티콘은 EmoticBox를 통해 
여러 플랫폼 유저들에게 사용 됩니다." transform="translate(1096.838 1077.65)" fill="#999" font-size="16" font-family="Helvetica" letter-spacing="-0.04em"><tspan x="0" y="0">EmoticStudio</tspan><tspan y="0" font-family="AppleSDGothicNeo-Regular, Apple SD Gothic Neo">에</tspan><tspan y="0"> </tspan><tspan y="0" font-family="AppleSDGothicNeo-Regular, Apple SD Gothic Neo">등록된</tspan><tspan y="0"> </tspan><tspan y="0" font-family="AppleSDGothicNeo-Regular, Apple SD Gothic Neo">이모티콘은</tspan><tspan y="0" xml:space="preserve"> EmoticBox</tspan><tspan y="0" font-family="AppleSDGothicNeo-Regular, Apple SD Gothic Neo">를</tspan><tspan y="0"> </tspan><tspan y="0" font-family="AppleSDGothicNeo-Regular, Apple SD Gothic Neo">통해</tspan><tspan y="0"> </tspan><tspan font-family="AppleSDGothicNeo-Regular, Apple SD Gothic Neo"><tspan x="0" y="24">여러</tspan><tspan y="24" font-family="Helvetica"> </tspan><tspan y="24">플랫폼</tspan><tspan y="24" font-family="Helvetica"> </tspan><tspan y="24">유저들에게</tspan><tspan y="24" font-family="Helvetica"> </tspan><tspan y="24">사용</tspan><tspan y="24" font-family="Helvetica"> </tspan><tspan y="24">됩니다</tspan><tspan y="24" font-family="Helvetica">.</tspan></tspan></text>
    </g>
  </g>
</svg>
